<svg xmlns="http://www.w3.org/2000/svg" viewBox="0 0 512 512" role="img" aria-label="Mi Saldo">
  <rect width="512" height="512" rx="132" fill="#0d7a55"/>
  <path d="M120 178c0-18 14-32 32-32h208c18 0 32 14 32 32v156c0 18-14 32-32 32H152c-18 0-32-14-32-32V178Z" fill="#fff"/>
  <path d="M120 214h272v120c0 18-14 32-32 32H152c-18 0-32-14-32-32V214Z" fill="#e1f3eb"/>
  <path d="M166 292h66M166 326h42" stroke="#0d7a55" stroke-width="18" stroke-linecap="round"/>
  <path d="m264 314 35-36 28 24 43-53" fill="none" stroke="#0d7a55" stroke-width="18" stroke-linecap="round" stroke-linejoin="round"/>
  <circle cx="370" cy="249" r="12" fill="#0d7a55"/>
</svg>
